<?xml version="1.0" encoding="UTF-8"?>
<svg xmlns="http://www.w3.org/2000/svg" width="1400" height="640" viewBox="0 0 1400 640">
  <title>Original MemGen versus session-local latent memory management</title>
  <desc>Editable vector architecture diagram. Dark gray denotes reasoning and control, blue denotes generated latent memory, and purple denotes session-local memory access and write.</desc>
  <defs>
    <marker id="arrow-gray" markerWidth="8" markerHeight="8" refX="7" refY="4" orient="auto"><path d="M0,0 L8,4 L0,8 z" fill="#343434"/></marker>
    <marker id="arrow-blue" markerWidth="8" markerHeight="8" refX="7" refY="4" orient="auto"><path d="M0,0 L8,4 L0,8 z" fill="#1f5aa6"/></marker>
    <marker id="arrow-purple" markerWidth="8" markerHeight="8" refX="7" refY="4" orient="auto"><path d="M0,0 L8,4 L0,8 z" fill="#6b318f"/></marker>
    <style>
      .panel { fill:#ffffff; stroke:#9aa9bd; stroke-width:1.25; }
      .panel-right { fill:#ffffff; stroke:#b595cb; stroke-width:1.25; }
      .module { fill:#f8fafc; stroke:#274f8f; stroke-width:1.5; }
      .node { fill:#ffffff; stroke:#404040; stroke-width:1.2; }
      .bank { fill:#fcfaff; stroke:#6b318f; stroke-width:1.6; }
      .control { fill:none; stroke:#343434; stroke-width:2; marker-end:url(#arrow-gray); }
      .trunk { fill:none; stroke:#343434; stroke-width:2; }
      .control-dashed { fill:none; stroke:#343434; stroke-width:2; stroke-dasharray:6 5; marker-end:url(#arrow-gray); }
      .latent { fill:none; stroke:#1f5aa6; stroke-width:2.25; marker-end:url(#arrow-blue); }
      .memory { fill:none; stroke:#6b318f; stroke-width:2.2; marker-end:url(#arrow-purple); }
      .memory-dashed { fill:none; stroke:#6b318f; stroke-width:1.5; stroke-dasharray:5 4; marker-end:url(#arrow-purple); }
      .title { font-family:Georgia, 'Times New Roman', serif; font-size:22px; font-weight:600; fill:#1f3f78; }
      .title-right { font-family:Georgia, 'Times New Roman', serif; font-size:22px; font-weight:600; fill:#572477; }
      .label { font-family:Georgia, 'Times New Roman', serif; font-size:16px; fill:#161616; }
      .small { font-family:Georgia, 'Times New Roman', serif; font-size:12.5px; fill:#353535; }
      .tiny { font-family:Georgia, 'Times New Roman', serif; font-size:11.5px; fill:#353535; }
      .gray { fill:#343434; } .blue { fill:#1f5aa6; } .purple { fill:#6b318f; }
    </style>
  </defs>

  <rect x="12" y="10" width="666" height="520" rx="9" class="panel"/>
  <rect x="722" y="10" width="666" height="520" rx="9" class="panel-right"/>

  <text x="345" y="39" text-anchor="middle" class="title">(a) Original MemGen</text>
  <text x="345" y="64" text-anchor="middle" class="title">Transient latent memory</text>
  <text x="1055" y="39" text-anchor="middle" class="title-right">(b) Ours</text>
  <text x="1055" y="64" text-anchor="middle" class="title-right">Session-local latent memory management</text>

  <!-- Left modules -->
  <rect x="58" y="278" width="164" height="78" rx="9" class="module"/>
  <text x="140" y="310" text-anchor="middle" class="label" font-weight="600">Reasoner</text><text x="140" y="333" text-anchor="middle" class="small">(Frozen)</text>
  <rect x="264" y="98" width="150" height="74" rx="9" class="module"/>
  <text x="339" y="129" text-anchor="middle" class="label" font-weight="600">Trigger</text><text x="339" y="151" text-anchor="middle" class="small">(Frozen)</text>
  <rect x="430" y="278" width="164" height="78" rx="9" class="module"/>
  <text x="512" y="310" text-anchor="middle" class="label" font-weight="600">Weaver</text><text x="512" y="333" text-anchor="middle" class="small">(Frozen)</text>
  <rect x="487" y="420" width="50" height="34" rx="6" class="node"/>
  <text x="512" y="443" text-anchor="middle" class="label" font-style="italic">m<tspan baseline-shift="sub" font-size="10">t</tspan></text>
  <!-- Left: one H_t output trunk branches to Trigger and Weaver -->
  <path d="M222 317 L245 317" class="trunk"/>
  <circle cx="245" cy="317" r="3" fill="#343434"/>
  <path d="M245 317 L245 190 L339 190 L339 172" class="control"/>
  <path d="M245 317 L430 317" class="control"/>
  <text x="270" y="307" text-anchor="middle" class="label" font-style="italic">H<tspan baseline-shift="sub" font-size="10">t</tspan></text>
  <!-- Left decisions -->
  <path d="M264 135 L146 135 L146 278" class="control"/>
  <text x="146" y="153" text-anchor="middle" class="small gray">SKIP</text>
  <path d="M414 135 L512 135 L512 278" class="control"/>
  <text x="512" y="153" text-anchor="middle" class="small gray">INVOKE</text>
  <path d="M512 356 L512 420" class="latent"/>
  <path d="M487 437 L140 437 L140 356" class="latent"/>
  <text x="329" y="462" text-anchor="middle" class="tiny" fill="#777777">Not retained after use</text>

  <!-- Right modules -->
  <rect x="744" y="278" width="164" height="78" rx="9" class="module"/>
  <text x="826" y="310" text-anchor="middle" class="label" font-weight="600">Reasoner</text><text x="826" y="333" text-anchor="middle" class="small">(Frozen)</text>
  <rect x="950" y="98" width="150" height="74" rx="9" class="module"/>
  <text x="1025" y="129" text-anchor="middle" class="label" font-weight="600">Trigger</text><text x="1025" y="151" text-anchor="middle" class="small">(Frozen)</text>
  <rect x="990" y="352" width="150" height="78" rx="9" class="module"/>
  <text x="1065" y="384" text-anchor="middle" class="label" font-weight="600">Weaver</text><text x="1065" y="407" text-anchor="middle" class="small">(Frozen)</text>
  <rect x="1040" y="460" width="50" height="34" rx="6" class="node"/>
  <text x="1065" y="483" text-anchor="middle" class="label" font-style="italic">m<tspan baseline-shift="sub" font-size="10">t</tspan></text>
  <!-- Right: one H_t output trunk branches to Trigger, Weaver, and bank -->
  <path d="M908 317 L930 317" class="trunk"/>
  <circle cx="930" cy="317" r="3" fill="#343434"/>
  <path d="M930 317 L930 206 L1025 206 L1025 172" class="control"/>
  <path d="M930 317 L960 317 L960 391 L990 391" class="control"/>
  <text x="958" y="307" text-anchor="middle" class="label" font-style="italic">H<tspan baseline-shift="sub" font-size="10">t</tspan></text>
  <path d="M950 135 L832 135 L832 278" class="control"/>
  <text x="832" y="153" text-anchor="middle" class="small gray">SKIP</text>
  <path d="M1100 135 L1180 135 L1180 330 L1065 330 L1065 352" class="control-dashed"/>
  <text x="1130" y="153" text-anchor="middle" class="small gray">INVOKE</text>

  <!-- Memory bank -->
  <rect x="1210" y="174" width="154" height="248" rx="10" class="bank"/>
  <text x="1287" y="201" text-anchor="middle" class="label purple" font-weight="600" font-size="13">Session-Local</text>
  <text x="1287" y="222" text-anchor="middle" class="label purple" font-weight="600" font-size="13">Latent Memory Bank</text>
  <text x="1222" y="256" class="small purple">Slot 1</text>
  <text x="1222" y="290" class="small purple">Slot 2</text>
  <text x="1247" y="324" class="small purple">...</text>
  <text x="1222" y="358" class="small purple">Slot N</text>
  <!-- 4 times 8 individually editable latent-token blocks -->
  <g fill="#f1eafa" stroke="#6b318f" stroke-width="1">
    <rect x="1270" y="240" width="10" height="18"/><rect x="1282" y="240" width="10" height="18"/><rect x="1294" y="240" width="10" height="18"/><rect x="1306" y="240" width="10" height="18"/><rect x="1318" y="240" width="10" height="18"/><rect x="1330" y="240" width="10" height="18"/><rect x="1342" y="240" width="10" height="18"/><rect x="1354" y="240" width="10" height="18"/>
    <rect x="1270" y="274" width="10" height="18"/><rect x="1282" y="274" width="10" height="18"/><rect x="1294" y="274" width="10" height="18"/><rect x="1306" y="274" width="10" height="18"/><rect x="1318" y="274" width="10" height="18"/><rect x="1330" y="274" width="10" height="18"/><rect x="1342" y="274" width="10" height="18"/><rect x="1354" y="274" width="10" height="18"/>
    <rect x="1270" y="342" width="10" height="18"/><rect x="1282" y="342" width="10" height="18"/><rect x="1294" y="342" width="10" height="18"/><rect x="1306" y="342" width="10" height="18"/><rect x="1318" y="342" width="10" height="18"/><rect x="1330" y="342" width="10" height="18"/><rect x="1342" y="342" width="10" height="18"/><rect x="1354" y="342" width="10" height="18"/>
  </g>
  <line x1="1211" y1="373" x2="1363" y2="373" stroke="#b595cb" stroke-width="1" stroke-dasharray="3 3"/>
  <text x="1287" y="396" text-anchor="middle" class="small purple" font-size="10.5">Capacity-aware replacement</text>
  <!-- Query/retrieval have only their prescribed endpoints -->
  <path d="M930 317 L1170 317 L1170 272 L1210 272" class="memory"/>
  <text x="1138" y="256" text-anchor="middle" class="small purple">Query with <tspan font-style="italic">H</tspan><tspan baseline-shift="sub" font-size="9" font-style="italic">t</tspan></text>
  <path d="M1210 332 L1165 332 L1165 391 L1140 391" class="memory"/>
  <text x="1155" y="370" text-anchor="end" class="small purple">Retrieve top-k <tspan font-style="italic">R</tspan><tspan baseline-shift="sub" font-size="9" font-style="italic">t</tspan></text>
  <!-- Generated memory follows two separate outgoing paths -->
  <path d="M1065 430 L1065 460" class="latent"/>
  <path d="M1040 477 L826 477 L826 356" class="latent"/>
  <rect x="1198" y="461" width="116" height="33" rx="6" fill="#fcfaff" stroke="#6b318f" stroke-width="1.3"/>
  <text x="1256" y="483" text-anchor="middle" class="small purple">Insert / Update</text>
  <path d="M1090 477 L1198 477" class="memory"/>
  <path d="M1256 461 L1256 437 L1287 437 L1287 422" class="memory"/>
  <!-- Session reset annotation -->
  <rect x="1224" y="88" width="126" height="56" rx="7" fill="#ffffff" stroke="#6b318f" stroke-width="1.3" stroke-dasharray="5 3"/>
  <text x="1287" y="111" text-anchor="middle" class="small purple">Reset at</text><text x="1287" y="130" text-anchor="middle" class="small purple">session end</text>
  <path d="M1287 174 L1287 144" class="memory-dashed"/>

  <!-- Legend and footer -->
  <line x1="360" y1="565" x2="410" y2="565" stroke="#343434" stroke-width="2" marker-end="url(#arrow-gray)"/><text x="422" y="570" class="small">Control / reasoning flow</text>
  <line x1="650" y1="565" x2="700" y2="565" stroke="#1f5aa6" stroke-width="2.25" marker-end="url(#arrow-blue)"/><text x="712" y="570" class="small">Latent-memory flow</text>
  <line x1="930" y1="565" x2="980" y2="565" stroke="#6b318f" stroke-width="2.2" marker-end="url(#arrow-purple)"/><text x="992" y="570" class="small">Session-local memory access / write</text>
  <text x="700" y="615" text-anchor="middle" class="small" font-weight="600">All MemGen modules are frozen; only session-local memory state changes.</text>
</svg>
